<?xml version="1.0" encoding="UTF-8"?>
<svg width="128" height="128" viewBox="0 0 128 128" xmlns="http://www.w3.org/2000/svg">
  <!-- Background circle -->
  <circle cx="64" cy="64" r="60" fill="#4B5563"/>
  
  <!-- Dog head -->
  <path d="M45 45 C35 45, 30 55, 30 65 C30 80, 45 90, 60 90 C75 90, 90 80, 90 65 C90 55, 85 45, 75 45 Z" 
        fill="#D1D5DB"/>
  
  <!-- Nose -->
  <circle cx="60" cy="75" r="8" fill="#1F2937"/>
  
  <!-- Eyes -->
  <circle cx="45" cy="60" r="4" fill="#1F2937"/>
  <circle cx="75" cy="60" r="4" fill="#1F2937"/>
  
  <!-- Ears -->
  <path d="M35 45 C30 35, 25 30, 35 25" stroke="#D1D5DB" stroke-width="6" fill="none"/>
  <path d="M85 45 C90 35, 95 30, 85 25" stroke="#D1D5DB" stroke-width="6" fill="none"/>
  
  <!-- Font symbol -->
  <text x="85" y="85" font-family="Arial Black" font-size="24" fill="#10B981">A</text>
  
  <!-- Sniffing lines -->
  <path d="M65 75 C70 73, 75 73, 80 75" stroke="#10B981" stroke-width="2"/>
  <path d="M65 78 C70 76, 75 76, 80 78" stroke="#10B981" stroke-width="2"/>
  <path d="M65 81 C70 79, 75 79, 80 81" stroke="#10B981" stroke-width="2"/>
</svg> 